<svg width="127" height="75" viewBox="0 0 127 75" fill="none" xmlns="http://www.w3.org/2000/svg">
<path d="M12.1226 1.99951H116.233V13.4089" stroke="#1E1E1E" stroke-width="2.85235"/>
<path d="M116.233 56.1938H12.1226V44.7844" stroke="#1E1E1E" stroke-width="2.85235"/>
<path d="M0.106963 36.7046L10.1258 13.1014H13.4774L23.4962 36.7046H20.5369L17.6489 29.8589H5.95428L3.06628 36.7046H0.106963ZM6.98826 27.3988H16.6149L11.8016 15.8824L6.98826 27.3988ZM33.4477 36.9898C31.7125 36.9898 30.1913 36.5857 28.884 35.7776C27.6004 34.9456 26.6021 33.8285 25.889 32.4261C25.1759 31.0237 24.8194 29.4786 24.8194 27.791C24.8194 26.0796 25.1759 24.5346 25.889 23.1559C26.6021 21.7535 27.6004 20.6482 28.884 19.8401C30.1913 19.0081 31.7125 18.5922 33.4477 18.5922C34.9214 18.5922 36.1812 18.8774 37.2271 19.4479C38.2967 20.0183 39.1643 20.7908 39.8299 21.7654V11.7465H42.5039V36.7046H39.8299V33.8522C39.1643 34.803 38.2967 35.5636 37.2271 36.1341C36.1812 36.7046 34.9214 36.9898 33.4477 36.9898ZM33.8043 34.5653C35.1354 34.5653 36.2525 34.2563 37.1558 33.6383C38.0828 33.0203 38.784 32.2003 39.2594 31.1782C39.7348 30.1323 39.9725 29.0032 39.9725 27.791C39.9725 26.555 39.7348 25.4259 39.2594 24.4038C38.784 23.3817 38.0828 22.5617 37.1558 21.9437C36.2525 21.3257 35.1354 21.0167 33.8043 21.0167C32.4969 21.0167 31.3679 21.3257 30.4171 21.9437C29.4663 22.5617 28.7413 23.3817 28.2422 24.4038C27.743 25.4259 27.4934 26.555 27.4934 27.791C27.4934 29.0032 27.743 30.1323 28.2422 31.1782C28.7413 32.2003 29.4663 33.0203 30.4171 33.6383C31.3679 34.2563 32.4969 34.5653 33.8043 34.5653ZM47.1293 36.7046V18.8774H49.8033V23.2629C49.8984 22.9539 50.0767 22.5498 50.3382 22.0506C50.6234 21.5277 51.0275 21.0048 51.5504 20.4818C52.0733 19.9589 52.727 19.5192 53.5114 19.1626C54.3196 18.7823 55.2703 18.5922 56.3637 18.5922H56.542V21.2662H56.2211C54.89 21.2662 53.7372 21.6347 52.7627 22.3715C51.8119 23.0846 51.075 24.0235 50.5521 25.1882C50.0529 26.3292 49.8033 27.5533 49.8033 28.8606V36.7046H47.1293ZM59.3133 15.8824V12.3883H62.2013V15.8824H59.3133ZM59.4203 36.7046V18.8774H62.0944V36.7046H59.4203ZM74.2553 36.9898C72.5201 36.9898 70.9989 36.5857 69.6915 35.7776C68.408 34.9456 67.4096 33.8285 66.6966 32.4261C65.9835 31.0237 65.6269 29.4786 65.6269 27.791C65.6269 26.0796 65.9835 24.5346 66.6966 23.1559C67.4096 21.7535 68.408 20.6482 69.6915 19.8401C70.9989 19.0081 72.5201 18.5922 74.2553 18.5922C75.729 18.5922 76.9888 18.8774 78.0347 19.4479C79.1043 20.0183 79.9719 20.7908 80.6374 21.7654V18.8774H83.3115V36.7046H80.6374V33.8522C79.9719 34.803 79.1043 35.5636 78.0347 36.1341C76.9888 36.7046 75.729 36.9898 74.2553 36.9898ZM74.6118 34.5653C75.9429 34.5653 77.0601 34.2563 77.9633 33.6383C78.8904 33.0203 79.5916 32.2003 80.067 31.1782C80.5423 30.1323 80.78 29.0032 80.78 27.791C80.78 26.555 80.5423 25.4259 80.067 24.4038C79.5916 23.3817 78.8904 22.5617 77.9633 21.9437C77.0601 21.3257 75.9429 21.0167 74.6118 21.0167C73.3045 21.0167 72.1754 21.3257 71.2247 21.9437C70.2739 22.5617 69.5489 23.3817 69.0497 24.4038C68.5506 25.4259 68.301 26.555 68.301 27.791C68.301 29.0032 68.5506 30.1323 69.0497 31.1782C69.5489 32.2003 70.2739 33.0203 71.2247 33.6383C72.1754 34.2563 73.3045 34.5653 74.6118 34.5653ZM87.9368 36.7046V18.8774H90.6109V21.6584C91.2527 20.8027 92.0371 20.0778 92.9641 19.4835C93.8911 18.8893 95.0796 18.5922 96.5295 18.5922C97.7655 18.5922 98.9184 18.8893 99.988 19.4835C101.081 20.054 101.961 20.9216 102.626 22.0863C103.316 23.2272 103.66 24.6415 103.66 26.3292V36.7046H100.986V26.4005C100.986 24.7841 100.523 23.4887 99.5958 22.5141C98.6688 21.5158 97.4684 21.0167 95.9947 21.0167C94.9964 21.0167 94.0931 21.2425 93.285 21.6941C92.4768 22.1457 91.8232 22.7875 91.324 23.6194C90.8486 24.4276 90.6109 25.3665 90.6109 26.4361V36.7046H87.9368ZM115.869 36.9898C114.062 36.9898 112.493 36.5857 111.162 35.7776C109.831 34.9456 108.809 33.8285 108.096 32.4261C107.383 31.0237 107.026 29.4786 107.026 27.791C107.026 26.0796 107.383 24.5346 108.096 23.1559C108.809 21.7535 109.831 20.6482 111.162 19.8401C112.493 19.0081 114.062 18.5922 115.869 18.5922C117.699 18.5922 119.268 19.0081 120.575 19.8401C121.906 20.6482 122.928 21.7535 123.641 23.1559C124.354 24.5346 124.711 26.0796 124.711 27.791C124.711 29.4786 124.354 31.0237 123.641 32.4261C122.928 33.8285 121.906 34.9456 120.575 35.7776C119.268 36.5857 117.699 36.9898 115.869 36.9898ZM115.869 34.5653C117.2 34.5653 118.317 34.2563 119.22 33.6383C120.147 33.0203 120.848 32.2003 121.324 31.1782C121.799 30.1323 122.037 29.0032 122.037 27.791C122.037 26.555 121.799 25.4259 121.324 24.4038C120.848 23.3817 120.147 22.5617 119.22 21.9437C118.317 21.3257 117.2 21.0167 115.869 21.0167C114.561 21.0167 113.444 21.3257 112.517 21.9437C111.59 22.5617 110.889 23.3817 110.414 24.4038C109.938 25.4259 109.7 26.555 109.7 27.791C109.7 29.0032 109.938 30.1323 110.414 31.1782C110.889 32.2003 111.59 33.0203 112.517 33.6383C113.444 34.2563 114.561 34.5653 115.869 34.5653Z" fill="#1E1E1E"/>
<path d="M13.2563 72.9472C12.7856 72.9472 12.3792 72.8402 12.0369 72.6263C11.6946 72.4076 11.4308 72.1152 11.2454 71.7492C11.0647 71.3831 10.9744 70.9767 10.9744 70.5298C10.9744 70.0829 11.0647 69.6765 11.2454 69.3104C11.4308 68.9444 11.6946 68.6544 12.0369 68.4405C12.3792 68.2218 12.7856 68.1124 13.2563 68.1124C13.6128 68.1124 13.9337 68.1766 14.2189 68.305C14.5042 68.4286 14.7466 68.5997 14.9463 68.8184C15.146 69.0371 15.2957 69.2914 15.3955 69.5814H14.8322C14.7134 69.2914 14.5256 69.0609 14.2689 68.8897C14.0121 68.7186 13.6889 68.633 13.2991 68.633C12.9187 68.633 12.5931 68.7186 12.3221 68.8897C12.0559 69.0561 11.8539 69.2819 11.716 69.5671C11.5781 69.8524 11.5092 70.1733 11.5092 70.5298C11.5092 70.8816 11.5781 71.2025 11.716 71.4925C11.8539 71.7777 12.0559 72.0059 12.3221 72.177C12.5931 72.3434 12.9187 72.4266 13.2991 72.4266C13.6889 72.4266 14.0121 72.3411 14.2689 72.1699C14.5256 71.9988 14.7134 71.7682 14.8322 71.4782H15.3955C15.2957 71.7635 15.146 72.0178 14.9463 72.2412C14.7466 72.4599 14.5042 72.6334 14.2189 72.7618C13.9337 72.8854 13.6128 72.9472 13.2563 72.9472ZM19.7199 72.9472C19.3634 72.9472 19.0377 72.8854 18.743 72.7618C18.4482 72.6382 18.1939 72.4647 17.98 72.2412C17.7708 72.0178 17.6092 71.7611 17.4951 71.4711C17.381 71.1763 17.3239 70.8626 17.3239 70.5298C17.3239 70.1923 17.381 69.8785 17.4951 69.5885C17.6092 69.2986 17.7708 69.0418 17.98 68.8184C18.1939 68.595 18.4482 68.4215 18.743 68.2979C19.0377 68.1742 19.3634 68.1124 19.7199 68.1124C20.0765 68.1124 20.4021 68.1742 20.6968 68.2979C20.9916 68.4215 21.2435 68.595 21.4527 68.8184C21.6666 69.0418 21.8307 69.2986 21.9447 69.5885C22.0588 69.8785 22.1159 70.1923 22.1159 70.5298C22.1159 70.8626 22.0588 71.1763 21.9447 71.4711C21.8307 71.7611 21.6666 72.0178 21.4527 72.2412C21.2435 72.4647 20.9916 72.6382 20.6968 72.7618C20.4021 72.8854 20.0765 72.9472 19.7199 72.9472ZM19.7199 72.4266C20.105 72.4266 20.4354 72.3434 20.7111 72.177C20.9916 72.0059 21.2055 71.7777 21.3529 71.4925C21.505 71.2025 21.5811 70.8816 21.5811 70.5298C21.5811 70.1733 21.505 69.8524 21.3529 69.5671C21.2055 69.2819 20.9916 69.0561 20.7111 68.8897C20.4354 68.7186 20.105 68.633 19.7199 68.633C19.3396 68.633 19.0092 68.7186 18.7287 68.8897C18.4482 69.0561 18.2319 69.2819 18.0798 69.5671C17.9324 69.8524 17.8588 70.1733 17.8588 70.5298C17.8588 70.8816 17.9324 71.2025 18.0798 71.4925C18.2319 71.7777 18.4482 72.0059 18.7287 72.177C19.0092 72.3434 19.3396 72.4266 19.7199 72.4266ZM24.3978 72.8901V68.1695H26.6583C27.1432 68.1695 27.5282 68.3026 27.8135 68.5688C28.1035 68.835 28.2484 69.194 28.2484 69.6456C28.2484 69.9498 28.189 70.1923 28.0702 70.3729C27.9561 70.5536 27.8111 70.6914 27.6352 70.7865C27.4593 70.8769 27.2834 70.9434 27.1075 70.9862L28.3483 72.8901H27.7136L26.5727 71.0789H24.9326V72.8901H24.3978ZM24.9326 70.5726H26.5656C26.7367 70.5726 26.9102 70.5465 27.0861 70.4942C27.262 70.4419 27.4094 70.3492 27.5282 70.2161C27.6518 70.0782 27.7136 69.888 27.7136 69.6456C27.7136 69.3461 27.6114 69.1108 27.407 68.9396C27.2026 68.7637 26.9316 68.6758 26.5941 68.6758H24.9326V70.5726ZM30.5941 72.8901V68.1695H32.8546C33.3395 68.1695 33.7246 68.3026 34.0098 68.5688C34.2998 68.835 34.4448 69.194 34.4448 69.6456C34.4448 69.9498 34.3854 70.1923 34.2665 70.3729C34.1524 70.5536 34.0074 70.6914 33.8315 70.7865C33.6556 70.8769 33.4797 70.9434 33.3038 70.9862L34.5446 72.8901H33.91L32.769 71.0789H31.1289V72.8901H30.5941ZM31.1289 70.5726H32.7619C32.933 70.5726 33.1066 70.5465 33.2825 70.4942C33.4584 70.4419 33.6057 70.3492 33.7246 70.2161C33.8482 70.0782 33.91 69.888 33.91 69.6456C33.91 69.3461 33.8078 69.1108 33.6033 68.9396C33.3989 68.7637 33.128 68.6758 32.7904 68.6758H31.1289V70.5726ZM36.7905 72.8901V68.1695H40.2632V68.6829H37.3253V70.266H39.9494V70.7865H37.3253V72.3767H40.2632V72.8901H36.7905ZM43.7245 72.8901V68.6758H42.0773V68.1695H45.9066V68.6758H44.2593V72.8901H43.7245ZM49.9078 72.9472C49.5512 72.9472 49.2256 72.8854 48.9308 72.7618C48.6361 72.6382 48.3818 72.4647 48.1678 72.2412C47.9587 72.0178 47.797 71.7611 47.6829 71.4711C47.5688 71.1763 47.5118 70.8626 47.5118 70.5298C47.5118 70.1923 47.5688 69.8785 47.6829 69.5885C47.797 69.2986 47.9587 69.0418 48.1678 68.8184C48.3818 68.595 48.6361 68.4215 48.9308 68.2979C49.2256 68.1742 49.5512 68.1124 49.9078 68.1124C50.2643 68.1124 50.59 68.1742 50.8847 68.2979C51.1794 68.4215 51.4314 68.595 51.6406 68.8184C51.8545 69.0418 52.0185 69.2986 52.1326 69.5885C52.2467 69.8785 52.3037 70.1923 52.3037 70.5298C52.3037 70.8626 52.2467 71.1763 52.1326 71.4711C52.0185 71.7611 51.8545 72.0178 51.6406 72.2412C51.4314 72.4647 51.1794 72.6382 50.8847 72.7618C50.59 72.8854 50.2643 72.9472 49.9078 72.9472ZM49.9078 72.4266C50.2928 72.4266 50.6232 72.3434 50.899 72.177C51.1794 72.0059 51.3934 71.7777 51.5407 71.4925C51.6929 71.2025 51.7689 70.8816 51.7689 70.5298C51.7689 70.1733 51.6929 69.8524 51.5407 69.5671C51.3934 69.2819 51.1794 69.0561 50.899 68.8897C50.6232 68.7186 50.2928 68.633 49.9078 68.633C49.5275 68.633 49.1971 68.7186 48.9166 68.8897C48.6361 69.0561 48.4198 69.2819 48.2677 69.5671C48.1203 69.8524 48.0466 70.1733 48.0466 70.5298C48.0466 70.8816 48.1203 71.2025 48.2677 71.4925C48.4198 71.7777 48.6361 72.0059 48.9166 72.177C49.1971 72.3434 49.5275 72.4266 49.9078 72.4266ZM54.5856 72.8901V68.1695H56.8461C57.331 68.1695 57.7161 68.3026 58.0013 68.5688C58.2913 68.835 58.4363 69.194 58.4363 69.6456C58.4363 69.9498 58.3769 70.1923 58.258 70.3729C58.1439 70.5536 57.9989 70.6914 57.823 70.7865C57.6471 70.8769 57.4713 70.9434 57.2954 70.9862L58.5361 72.8901H57.9015L56.7605 71.0789H55.1204V72.8901H54.5856ZM55.1204 70.5726H56.7534C56.9246 70.5726 57.0981 70.5465 57.274 70.4942C57.4499 70.4419 57.5972 70.3492 57.7161 70.2161C57.8397 70.0782 57.9015 69.888 57.9015 69.6456C57.9015 69.3461 57.7993 69.1108 57.5949 68.9396C57.3904 68.7637 57.1195 68.6758 56.7819 68.6758H55.1204V70.5726ZM63.7262 72.8901V68.1695H65.7158C65.9962 68.1695 66.2648 68.2242 66.5215 68.3335C66.783 68.4381 67.016 68.5926 67.2204 68.797C67.4248 69.0014 67.5864 69.2486 67.7053 69.5386C67.8241 69.8286 67.8835 70.159 67.8835 70.5298C67.8835 70.9006 67.8241 71.231 67.7053 71.521C67.5864 71.811 67.4248 72.0582 67.2204 72.2626C67.016 72.467 66.783 72.6239 66.5215 72.7333C66.2648 72.8378 65.9962 72.8901 65.7158 72.8901H63.7262ZM64.2611 72.3838H65.6944C66.0319 72.3838 66.3243 72.2983 66.5715 72.1271C66.8187 71.956 67.0088 71.7302 67.1419 71.4497C67.2798 71.1692 67.3487 70.8626 67.3487 70.5298C67.3487 70.1923 67.2798 69.8833 67.1419 69.6028C67.0088 69.3223 66.8187 69.0989 66.5715 68.9325C66.3243 68.7614 66.0319 68.6758 65.6944 68.6758H64.2611V72.3838ZM70.1663 72.8901V68.1695H73.6391V68.6829H70.7011V70.266H73.3253V70.7865H70.7011V72.3767H73.6391V72.8901H70.1663ZM78.8752 72.8901V68.1695H79.41V72.8901H78.8752ZM81.9935 72.8901V68.1695H82.6139L84.304 70.4086L85.9654 68.1695H86.5858V72.8901H86.051V68.9824L84.304 71.2286L82.5284 68.9824V72.8901H81.9935ZM91.2613 72.9472C90.9047 72.9472 90.5791 72.8854 90.2844 72.7618C89.9896 72.6382 89.7353 72.4647 89.5214 72.2412C89.3122 72.0178 89.1506 71.7611 89.0365 71.4711C88.9224 71.1763 88.8653 70.8626 88.8653 70.5298C88.8653 70.1923 88.9224 69.8785 89.0365 69.5885C89.1506 69.2986 89.3122 69.0418 89.5214 68.8184C89.7353 68.595 89.9896 68.4215 90.2844 68.2979C90.5791 68.1742 90.9047 68.1124 91.2613 68.1124C91.6178 68.1124 91.9435 68.1742 92.2382 68.2979C92.533 68.4215 92.7849 68.595 92.9941 68.8184C93.208 69.0418 93.372 69.2986 93.4861 69.5885C93.6002 69.8785 93.6573 70.1923 93.6573 70.5298C93.6573 70.8626 93.6002 71.1763 93.4861 71.4711C93.372 71.7611 93.208 72.0178 92.9941 72.2412C92.7849 72.4647 92.533 72.6382 92.2382 72.7618C91.9435 72.8854 91.6178 72.9472 91.2613 72.9472ZM91.2613 72.4266C91.6464 72.4266 91.9768 72.3434 92.2525 72.177C92.533 72.0059 92.7469 71.7777 92.8943 71.4925C93.0464 71.2025 93.1225 70.8816 93.1225 70.5298C93.1225 70.1733 93.0464 69.8524 92.8943 69.5671C92.7469 69.2819 92.533 69.0561 92.2525 68.8897C91.9768 68.7186 91.6464 68.633 91.2613 68.633C90.881 68.633 90.5506 68.7186 90.2701 68.8897C89.9896 69.0561 89.7733 69.2819 89.6212 69.5671C89.4738 69.8524 89.4001 70.1733 89.4001 70.5298C89.4001 70.8816 89.4738 71.2025 89.6212 71.4925C89.7733 71.7777 89.9896 72.0059 90.2701 72.177C90.5506 72.3434 90.881 72.4266 91.2613 72.4266ZM91.0188 67.7202L91.4538 66.9715H92.2168L91.4538 67.7202H91.0188ZM97.2105 72.8901L95.2994 68.1695H95.8841L97.5171 72.284L99.1501 68.1695H99.7348L97.8237 72.8901H97.2105ZM101.759 72.8901V68.1695H105.232V68.6829H102.294V70.266H104.918V70.7865H102.294V72.3767H105.232V72.8901H101.759ZM107.524 72.8901V68.1695H108.059V72.8901H107.524ZM112.332 72.9472C111.867 72.9472 111.489 72.8854 111.199 72.7618C110.909 72.6334 110.69 72.4575 110.543 72.2341C110.4 72.0107 110.317 71.7587 110.293 71.4782H110.849C110.863 71.7064 110.94 71.8918 111.077 72.0344C111.215 72.1723 111.396 72.2745 111.619 72.3411C111.848 72.4076 112.097 72.4409 112.368 72.4409C112.767 72.4409 113.084 72.372 113.316 72.2341C113.549 72.0915 113.666 71.8823 113.666 71.6066C113.666 71.4402 113.606 71.3071 113.488 71.2072C113.374 71.1027 113.219 71.0171 113.024 70.9505C112.834 70.884 112.625 70.8246 112.397 70.7723C112.168 70.7152 111.938 70.6558 111.705 70.594C111.477 70.5322 111.265 70.4538 111.07 70.3587C110.88 70.2636 110.726 70.1424 110.607 69.995C110.493 69.8429 110.436 69.6503 110.436 69.4174C110.436 69.0323 110.583 68.7186 110.878 68.4761C111.177 68.2337 111.622 68.1124 112.211 68.1124C112.63 68.1124 112.974 68.1766 113.245 68.305C113.516 68.4286 113.718 68.5926 113.851 68.797C113.989 69.0014 114.065 69.2225 114.079 69.4602H113.53C113.502 69.2225 113.383 69.0228 113.174 68.8612C112.965 68.6948 112.644 68.6116 112.211 68.6116C111.945 68.6116 111.729 68.6378 111.562 68.69C111.396 68.7423 111.268 68.8113 111.177 68.8968C111.092 68.9777 111.032 69.0632 110.999 69.1536C110.97 69.2439 110.956 69.3295 110.956 69.4103C110.956 69.5671 111.013 69.6955 111.127 69.7953C111.246 69.8904 111.401 69.9712 111.591 70.0378C111.786 70.0996 112 70.1566 112.233 70.2089C112.466 70.2612 112.696 70.3206 112.924 70.3872C113.157 70.449 113.369 70.5298 113.559 70.6296C113.754 70.7247 113.908 70.8483 114.022 71.0005C114.141 71.1526 114.201 71.3475 114.201 71.5852C114.201 72.0225 114.034 72.3601 113.702 72.5978C113.369 72.8307 112.912 72.9472 112.332 72.9472Z" fill="#1E1E1E"/>
</svg>
